<?xml version="1.0" encoding="UTF-8"?>
<svg id="Calque_1" data-name="Calque 1" xmlns="http://www.w3.org/2000/svg" xmlns:xlink="http://www.w3.org/1999/xlink" viewBox="0 0 500 500">
  <g>
    <path d="m250,499.5c-66.64,0-129.3-25.95-176.42-73.08C26.45,379.3.5,316.64.5,250S26.45,120.7,73.58,73.58C120.7,26.45,183.36.5,250,.5s129.3,25.95,176.42,73.08c47.12,47.12,73.08,109.78,73.08,176.42s-25.95,129.3-73.08,176.42c-47.12,47.12-109.78,73.08-176.42,73.08Z" style="fill: #00256e;"/>
    <path d="m250,1c33.62,0,66.22,6.58,96.92,19.57,29.65,12.54,56.28,30.5,79.15,53.36,22.87,22.87,40.82,49.5,53.36,79.15,12.98,30.7,19.57,63.31,19.57,96.92s-6.58,66.22-19.57,96.92c-12.54,29.65-30.5,56.28-53.36,79.15-22.87,22.87-49.5,40.82-79.15,53.36-30.7,12.98-63.31,19.57-96.92,19.57s-66.22-6.58-96.92-19.57c-29.65-12.54-56.28-30.5-79.15-53.36-22.87-22.87-40.82-49.5-53.36-79.15C7.58,316.22,1,283.62,1,250s6.58-66.22,19.57-96.92c12.54-29.65,30.5-56.28,53.36-79.15,22.87-22.87,49.5-40.82,79.15-53.36C183.78,7.58,216.38,1,250,1m0-1C111.93,0,0,111.93,0,250s111.93,250,250,250,250-111.93,250-250S388.07,0,250,0h0Z" style="fill: #00256e;"/>
  </g>
  <image width="300" height="300" transform="translate(100 100)" xlink:href="paper21.png"/>
</svg>