<?xml version="1.0" encoding="UTF-8"?>
<svg id="Calque_1" data-name="Calque 1" xmlns="http://www.w3.org/2000/svg" viewBox="0 0 546 500">
  <g>
    <path d="m296,495c-65.44,0-126.97-25.48-173.24-71.76s-71.76-107.8-71.76-173.24,25.48-126.97,71.76-173.24S230.56,5,296,5s126.97,25.48,173.24,71.76,71.76,107.8,71.76,173.24-25.48,126.97-71.76,173.24-107.8,71.76-173.24,71.76Z" style="fill: #00256e;"/>
    <path d="m296,10c32.4,0,63.83,6.34,93.42,18.86,28.58,12.09,54.25,29.39,76.29,51.44,22.04,22.04,39.35,47.71,51.44,76.29,12.51,29.58,18.86,61.01,18.86,93.42s-6.34,63.83-18.86,93.42c-12.09,28.58-29.39,54.25-51.44,76.29-22.04,22.04-47.71,39.35-76.29,51.44-29.58,12.51-61.01,18.86-93.42,18.86s-63.83-6.34-93.42-18.86c-28.58-12.09-54.25-29.39-76.29-51.44-22.04-22.04-39.35-47.71-51.44-76.29-12.51-29.58-18.86-61.01-18.86-93.42s6.34-63.83,18.86-93.42c12.09-28.58,29.39-54.25,51.44-76.29,22.04-22.04,47.71-39.35,76.29-51.44,29.58-12.51,61.01-18.86,93.42-18.86m0-10C157.93,0,46,111.93,46,250s111.93,250,250,250,250-111.93,250-250S434.07,0,296,0h0Z" style="fill: #00256e;"/>
  </g>
  <rect x="188.5" y="82" width="215" height="336" rx="12.74" ry="12.74" transform="translate(34.57 -35.95) rotate(7.38)" style="fill: #fff;"/>
  <g>
    <path d="m358.98,119.09c-.15,0-.3,0-.45-.03l-124.96-16.19c-.92-.12-1.74-.6-2.31-1.34-.57-.75-.83-1.66-.71-2.58.22-1.71,1.75-3.05,3.47-3.05.15,0,.3,0,.45.03l124.96,16.19c1.88.24,3.26,2.04,3.02,3.92-.22,1.74-1.72,3.05-3.47,3.05Z" style="fill: #00256e;"/>
    <path d="m234.02,90.91c-4.2,0-7.88,3.14-8.43,7.41h0c-.6,4.64,2.7,8.92,7.34,9.52l124.96,16.19c.37.05.73.07,1.09.07,4.2,0,7.88-3.14,8.43-7.41h0c.6-4.64-2.7-8.92-7.34-9.52l-124.96-16.19c-.37-.05-.73-.07-1.09-.07h0Z" style="fill: #00256e;"/>
  </g>
  <g>
    <rect x="303.19" y="52.14" width="8.93" height="172.52" rx="4.47" ry="4.47" transform="translate(130.88 425.72) rotate(-82.62)" style="fill: #00256e;"/>
    <path d="m226.54,123.42c-2.21,0-4.14,1.65-4.43,3.89h0c-.32,2.44,1.42,4.69,3.86,5l162.23,21.01c.19.02.38.04.57.04,2.21,0,4.14-1.65,4.43-3.89h0c.32-2.44-1.42-4.69-3.86-5l-162.23-21.01c-.19-.02-.38-.04-.57-.04h0Z" style="fill: #00256e;"/>
  </g>
  <g>
    <rect x="301.19" y="68.14" width="8.93" height="172.52" rx="4.47" ry="4.47" transform="translate(113.27 437.68) rotate(-82.62)" style="fill: #00256e;"/>
    <path d="m224.54,139.42c-2.21,0-4.14,1.65-4.43,3.89h0c-.32,2.44,1.42,4.69,3.86,5l162.23,21.01c.19.02.38.04.57.04,2.21,0,4.14-1.65,4.43-3.89h0c.32-2.44-1.42-4.69-3.86-5l-162.23-21.01c-.19-.02-.38-.04-.57-.04h0Z" style="fill: #00256e;"/>
  </g>
  <g>
    <rect x="299.19" y="84.14" width="8.93" height="172.52" rx="4.47" ry="4.47" transform="translate(95.66 449.64) rotate(-82.62)" style="fill: #00256e;"/>
    <path d="m222.54,155.42c-2.21,0-4.14,1.65-4.43,3.89h0c-.32,2.44,1.42,4.69,3.86,5l162.23,21.01c.19.02.38.04.57.04,2.21,0,4.14-1.65,4.43-3.89h0c.32-2.44-1.42-4.69-3.86-5l-162.23-21.01c-.19-.02-.38-.04-.57-.04h0Z" style="fill: #00256e;"/>
  </g>
</svg>