<?xml version="1.0" encoding="UTF-8"?>
<svg id="Calque_1" data-name="Calque 1" xmlns="http://www.w3.org/2000/svg" xmlns:xlink="http://www.w3.org/1999/xlink" viewBox="0 0 500 500">
  <g>
    <path d="m250,495c-65.4,0-127-25.5-173.2-71.8S5,315.4,5,250,30.5,123,76.8,76.8,184.6,5,250,5s127,25.5,173.2,71.8,71.8,107.8,71.8,173.2-25.5,127-71.8,173.2-107.8,71.8-173.2,71.8h0Z" style="fill: #00256e;"/>
    <path d="m250,10c32.4,0,63.8,6.3,93.4,18.9,28.6,12.1,54.3,29.3,76.3,51.4,22,22,39.4,47.7,51.4,76.3,12.5,29.6,18.9,61,18.9,93.4s-6.3,63.8-18.9,93.4c-12.1,28.6-29.4,54.2-51.4,76.3-22,22-47.7,39.4-76.3,51.4-29.6,12.5-61,18.9-93.4,18.9s-63.8-6.3-93.4-18.9c-28.6-12.1-54.2-29.4-76.3-51.4-22-22-39.3-47.7-51.4-76.3-12.6-29.5-18.9-61-18.9-93.4s6.3-63.8,18.9-93.4c12.1-28.6,29.4-54.2,51.4-76.3,22-22,47.7-39.3,76.3-51.4,29.6-12.5,61-18.9,93.4-18.9M250,0C111.9,0,0,111.9,0,250s111.9,250,250,250,250-111.9,250-250S388.1,0,250,0h0Z" style="fill: #00256e;"/>
  </g>
  <image width="300" height="300" transform="translate(88 88) scale(1.08)" xlink:href="paper1.png"/>
</svg>