<?xml version="1.0" encoding="UTF-8"?>
<svg id="Calque_1" data-name="Calque 1" xmlns="http://www.w3.org/2000/svg" viewBox="0 0 500 500">
  <path d="m250,495c-65.44,0-126.97-25.48-173.24-71.76S5,315.44,5,250,30.48,123.03,76.76,76.76,184.56,5,250,5s126.97,25.48,173.24,71.76,71.76,107.8,71.76,173.24-25.48,126.97-71.76,173.24-107.8,71.76-173.24,71.76Z" style="fill: #fff;"/>
  <path d="m250,10c32.4,0,63.83,6.34,93.42,18.86,28.58,12.09,54.25,29.39,76.29,51.44,22.04,22.04,39.35,47.71,51.44,76.29,12.51,29.58,18.86,61.01,18.86,93.42s-6.34,63.83-18.86,93.42c-12.09,28.58-29.39,54.25-51.44,76.29-22.04,22.04-47.71,39.35-76.29,51.44-29.58,12.51-61.01,18.86-93.42,18.86s-63.83-6.34-93.42-18.86c-28.58-12.09-54.25-29.39-76.29-51.44-22.04-22.04-39.35-47.71-51.44-76.29-12.51-29.58-18.86-61.01-18.86-93.42s6.34-63.83,18.86-93.42c12.09-28.58,29.39-54.25,51.44-76.29,22.04-22.04,47.71-39.35,76.29-51.44,29.58-12.51,61.01-18.86,93.42-18.86m0-10C111.93,0,0,111.93,0,250s111.93,250,250,250,250-111.93,250-250S388.07,0,250,0h0Z" style="fill: #00256e;"/>
</svg>