<?xml version="1.0" encoding="UTF-8"?>
<svg id="Calque_1" data-name="Calque 1" xmlns="http://www.w3.org/2000/svg" viewBox="0 0 500 500">
  <g>
    <path d="m250,495c-65.44,0-126.97-25.48-173.24-71.76S5,315.44,5,250,30.48,123.03,76.76,76.76,184.56,5,250,5s126.97,25.48,173.24,71.76,71.76,107.8,71.76,173.24-25.48,126.97-71.76,173.24-107.8,71.76-173.24,71.76Z" style="fill: #00256e;"/>
    <path d="m250,10c32.4,0,63.83,6.34,93.42,18.86,28.58,12.09,54.25,29.39,76.29,51.44,22.04,22.04,39.35,47.71,51.44,76.29,12.51,29.58,18.86,61.01,18.86,93.42s-6.34,63.83-18.86,93.42c-12.09,28.58-29.39,54.25-51.44,76.29-22.04,22.04-47.71,39.35-76.29,51.44-29.58,12.51-61.01,18.86-93.42,18.86s-63.83-6.34-93.42-18.86c-28.58-12.09-54.25-29.39-76.29-51.44-22.04-22.04-39.35-47.71-51.44-76.29-12.51-29.58-18.86-61.01-18.86-93.42s6.34-63.83,18.86-93.42c12.09-28.58,29.39-54.25,51.44-76.29,22.04-22.04,47.71-39.35,76.29-51.44,29.58-12.51,61.01-18.86,93.42-18.86m0-10C111.93,0,0,111.93,0,250s111.93,250,250,250,250-111.93,250-250S388.07,0,250,0h0Z" style="fill: #00256e;"/>
  </g>
  <path d="m251.78,214.31l-21.81-21.81c2.71-6.96,4.14-14.47,4.14-22.36,0-34.18-27.66-61.84-61.84-61.84s-61.84,27.66-61.84,61.84,27.66,61.84,61.84,61.84c7.9,0,15.41-1.49,22.36-4.14l21.81,21.81-21.81,21.81c-6.96-2.71-14.47-4.14-22.36-4.14-34.18,0-61.84,27.66-61.84,61.84s27.66,61.84,61.84,61.84,61.84-27.66,61.84-61.84c0-7.9-1.49-15.41-4.14-22.36l156.09-156.09c3.92-3.92,3.92-10.21,0-14.14-15.63-15.63-40.91-15.63-56.54,0l-77.74,77.74Zm12.48,83.15l65.26,65.26c15.63,15.63,40.91,15.63,56.54,0,3.92-3.92,3.92-10.21,0-14.14l-86.47-86.47-35.34,35.34Zm-65.49-127.33c0,14.63-11.87,26.5-26.5,26.5s-26.5-11.87-26.5-26.5,11.87-26.5,26.5-26.5,26.5,11.87,26.5,26.5Zm-26.5,185.52c-14.63,0-26.5-11.87-26.5-26.5s11.87-26.5,26.5-26.5,26.5,11.87,26.5,26.5-11.87,26.5-26.5,26.5Z" style="fill: #fff;"/>
</svg>