<?xml version="1.0" encoding="UTF-8"?>
<svg id="Calque_1" data-name="Calque 1" xmlns="http://www.w3.org/2000/svg" viewBox="0 0 546 500">
  <g>
    <path d="m296,495c-65.44,0-126.97-25.48-173.24-71.76s-71.76-107.8-71.76-173.24,25.48-126.97,71.76-173.24S230.56,5,296,5s126.97,25.48,173.24,71.76,71.76,107.8,71.76,173.24-25.48,126.97-71.76,173.24-107.8,71.76-173.24,71.76Z" style="fill: #00256e;"/>
    <path d="m296,10c32.4,0,63.83,6.34,93.42,18.86,28.58,12.09,54.25,29.39,76.29,51.44,22.04,22.04,39.35,47.71,51.44,76.29,12.51,29.58,18.86,61.01,18.86,93.42s-6.34,63.83-18.86,93.42c-12.09,28.58-29.39,54.25-51.44,76.29-22.04,22.04-47.71,39.35-76.29,51.44-29.58,12.51-61.01,18.86-93.42,18.86s-63.83-6.34-93.42-18.86c-28.58-12.09-54.25-29.39-76.29-51.44-22.04-22.04-39.35-47.71-51.44-76.29-12.51-29.58-18.86-61.01-18.86-93.42s6.34-63.83,18.86-93.42c12.09-28.58,29.39-54.25,51.44-76.29,22.04-22.04,47.71-39.35,76.29-51.44,29.58-12.51,61.01-18.86,93.42-18.86m0-10C157.93,0,46,111.93,46,250s111.93,250,250,250,250-111.93,250-250S434.07,0,296,0h0Z" style="fill: #00256e;"/>
  </g>
  <path d="m271.88,113.43c-2.7-10.05-12.99-15.99-23.05-13.29-10.05,2.7-15.99,12.99-13.29,23.05l31.1,116.11c1.47,5.41-2.65,10.7-8.23,10.7-3.76,0-7.05-2.47-8.17-6.06l-25.57-84.07c-3-9.94-13.52-15.52-23.46-12.52-9.94,3-15.52,13.52-12.52,23.46l36.92,121.34c1.41,4.64-4.23,8.11-7.76,4.76l-32.57-31.04c-9.41-8.94-24.28-8.58-33.28.82-8.99,9.41-8.58,24.28.82,33.28l66.08,62.91c25.34,24.16,59.03,37.63,94.06,37.63h11.23c.06,0,.06-.06.06-.06l.06-.06c34.27-2.06,63.85-25.4,73.66-58.61l47.74-161.67c2.94-9.94-2.76-20.4-12.7-23.4s-20.4,2.76-23.4,12.7l-22.16,75.37c-.94,3.12-3.76,5.23-7.05,5.23-4.64,0-8.11-4.29-7.17-8.88l21.16-100.12c2.18-10.17-4.35-20.17-14.52-22.28-10.17-2.12-20.17,4.35-22.28,14.52l-22.11,104.47c-1.53,7.17-7.82,12.29-15.17,12.29s-13.17-4.7-14.93-11.46l-33.51-125.11h0Z" style="fill: #fff;"/>
</svg>